# xmcd
#
# Track frame offsets: 
#        150
#        29293
#        71402
#        130422
#        146927
#        164556
#        179678
#        201876
#        234390
#        256185
#        281378
#        299117
#        323522
#
# Disc length: 4621 seconds
#
# Revision: 0
# Processed by: cddbd v1.5.2PL0 Copyright (c) Steve Scherf et al.
# Submitted via: ExactAudioCopy v0.99pb4
#
DISCID=cd120b0d
DTITLE=Chris Duarte - Something Old, Something New, Something Borrowed
DTITLE=, All Things Blue
DYEAR=2009
DGENRE=Blues
TTITLE0=Amy Lee
TTITLE1=Sun Prairie Blues
TTITLE2=Something Wicked
TTITLE3=The Best That I Can Do
TTITLE4=Satisfy
TTITLE5=Let's Have A Party
TTITLE6=Back In Town
TTITLE7=Chattahoochee Side
TTITLE8=Outside Man (Unreleased Studio Track)
TTITLE9=101 (Live Bootleg)
TTITLE10=Baddness (Live Bootleg)
TTITLE11=Like Erik (Live Bootleg)
TTITLE12=Free 4 Me (Live Bootleg)
EXTD=
EXTT0=
EXTT1=
EXTT2=
EXTT3=
EXTT4=
EXTT5=
EXTT6=
EXTT7=
EXTT8=
EXTT9=
EXTT10=
EXTT11=
EXTT12=
PLAYORDER=
